<mxfile host="app.diagrams.net" modified="2023-10-27T16:00:17.515Z" agent="Mozilla/5.0 (Windows NT 10.0; Win64; x64) AppleWebKit/537.36 (KHTML, like Gecko) Chrome/118.0.0.0 Safari/537.36" etag="wRdgSf5Hkhur9QR3fl8J" version="22.0.8" type="device">
  <diagram name="Page-1" id="uIn2MtVv_ypf_8noXrul">
    <mxGraphModel dx="1259" dy="702" grid="1" gridSize="10" guides="1" tooltips="1" connect="1" arrows="1" fold="1" page="1" pageScale="1" pageWidth="850" pageHeight="1100" math="0" shadow="0">
      <root>
        <mxCell id="0" />
        <mxCell id="1" parent="0" />
        <mxCell id="r3Xke3qoETq-LtIn6qGt-3" style="edgeStyle=orthogonalEdgeStyle;rounded=0;orthogonalLoop=1;jettySize=auto;html=1;entryX=0.5;entryY=0;entryDx=0;entryDy=0;" edge="1" parent="1" source="r3Xke3qoETq-LtIn6qGt-1" target="r3Xke3qoETq-LtIn6qGt-2">
          <mxGeometry relative="1" as="geometry" />
        </mxCell>
        <mxCell id="r3Xke3qoETq-LtIn6qGt-1" value="Start" style="strokeWidth=2;html=1;shape=mxgraph.flowchart.start_1;whiteSpace=wrap;" vertex="1" parent="1">
          <mxGeometry x="370" y="220" width="100" height="60" as="geometry" />
        </mxCell>
        <mxCell id="r3Xke3qoETq-LtIn6qGt-2" value="On Button Click,&lt;br&gt;Change Label to &quot;Hello World&quot;" style="rounded=1;whiteSpace=wrap;html=1;absoluteArcSize=1;arcSize=14;strokeWidth=2;" vertex="1" parent="1">
          <mxGeometry x="370" y="320" width="100" height="100" as="geometry" />
        </mxCell>
        <mxCell id="r3Xke3qoETq-LtIn6qGt-4" value="Program End" style="strokeWidth=2;html=1;shape=mxgraph.flowchart.terminator;whiteSpace=wrap;" vertex="1" parent="1">
          <mxGeometry x="370" y="460" width="100" height="60" as="geometry" />
        </mxCell>
        <mxCell id="r3Xke3qoETq-LtIn6qGt-5" style="edgeStyle=orthogonalEdgeStyle;rounded=0;orthogonalLoop=1;jettySize=auto;html=1;entryX=0.5;entryY=0;entryDx=0;entryDy=0;entryPerimeter=0;" edge="1" parent="1" source="r3Xke3qoETq-LtIn6qGt-2" target="r3Xke3qoETq-LtIn6qGt-4">
          <mxGeometry relative="1" as="geometry" />
        </mxCell>
      </root>
    </mxGraphModel>
  </diagram>
</mxfile>
